# xmcd
#
# Track frame offsets: 
#        150
#        15228
#        33555
#        39149
#        65101
#        86813
#        107843
#        120243
#        153640
#        184267
#        201503
#        242760
#        260572
#        282635
#        302694
#        311270
#
# Disc length: 4300 seconds
#
# Revision: 0
# Processed by: cddbd v1.5.2PL0 Copyright (c) Steve Scherf et al.
# Submitted via: ExactAudioCopy v0.95b3
#
DISCID=de10ca10
DTITLE=Crosby Stills Nash and Young  - Studio Archives 1969
DYEAR=1900
DGENRE=
TTITLE0=Everybody's Talking
TTITLE1=How Have You Been?
TTITLE2=Black Queen [riff and dialogue]
TTITLE3=Triad [acoustic take]
TTITLE4=Almost Cut My Hair [acoustic take]
TTITLE5=Everyday We Live
TTITLE6=Sea of Madness
TTITLE7=The Lee Shore [different vocal take]
TTITLE8=Everybody I Love You [unedited basic track - no vocals]
TTITLE9=I'll Be There
TTITLE10=Blackbird [takes 1-4]
TTITLE11=Ivory Tower
TTITLE12=Dollar Fine
TTITLE13=Everybody's Been Burned [Nash version]
TTITLE14=You're Wrong Baby
TTITLE15=Everybody's Alone
EXTD=
EXTT0=
EXTT1=
EXTT2=
EXTT3=
EXTT4=
EXTT5=
EXTT6=
EXTT7=
EXTT8=
EXTT9=
EXTT10=
EXTT11=
EXTT12=
EXTT13=
EXTT14=
EXTT15=
PLAYORDER=
